<svg width="26.916664" height="26.916626" viewBox="0 0 26.9167 26.9166" fill="none" xmlns="http://www.w3.org/2000/svg" xmlns:xlink="http://www.w3.org/1999/xlink">
	<desc>
			Created with Pixso.
	</desc>
	<defs>
		<clipPath id="clip95_5681">
			<rect id="facebook 1" rx="0.000000" width="11.641928" height="11.666667" transform="translate(7.624878 7.625000)" fill="white" fill-opacity="0"/>
		</clipPath>
	</defs>
	<circle id="Ellipse 7" cx="13.458328" cy="13.458374" r="13.458333" fill="#956D84" fill-opacity="1.000000"/>
	<rect id="facebook 1" rx="0.000000" width="11.641928" height="11.666667" transform="translate(7.624878 7.625000)" fill="#FFFFFF" fill-opacity="0"/>
	<g clip-path="url(#clip95_5681)">
		<path id="Vector" d="M14.29 19.76L12.27 19.76C11.93 19.76 11.65 19.49 11.65 19.15L11.65 14.57L10.47 14.57C10.13 14.57 9.85 14.3 9.85 13.96L9.85 12C9.85 11.66 10.13 11.38 10.47 11.38L11.65 11.38L11.65 10.4C11.65 9.43 11.96 8.6 12.54 8.01C13.12 7.41 13.93 7.1 14.88 7.1L16.43 7.1C16.77 7.1 17.04 7.37 17.04 7.71L17.04 9.53C17.04 9.87 16.77 10.15 16.43 10.15L15.39 10.15C15.07 10.15 14.99 10.21 14.97 10.23C14.94 10.26 14.91 10.35 14.91 10.61L14.91 11.38L16.35 11.38C16.46 11.38 16.56 11.41 16.65 11.46C16.85 11.57 16.97 11.77 16.97 12L16.97 13.96C16.97 14.3 16.69 14.57 16.36 14.57L14.91 14.57L14.91 19.15C14.91 19.49 14.63 19.76 14.29 19.76ZM12.39 19.02L14.17 19.02L14.17 14.24C14.17 14.01 14.35 13.83 14.58 13.83L16.23 13.83L16.23 12.13L14.58 12.13C14.35 12.13 14.17 11.94 14.17 11.72L14.17 10.61C14.17 10.32 14.2 9.99 14.41 9.74C14.68 9.44 15.1 9.4 15.39 9.4L16.3 9.4L16.3 7.84L14.88 7.84C13.35 7.84 12.39 8.82 12.39 10.4L12.39 11.72C12.39 11.94 12.21 12.13 11.98 12.13L10.6 12.13L10.6 13.83L11.98 13.83C12.21 13.83 12.39 14.01 12.39 14.24L12.39 19.02ZM16.43 7.84L16.43 7.84L16.43 7.84Z" fill="#FFFFFF" fill-opacity="1.000000" fill-rule="nonzero"/>
	</g>
</svg>
