<svg width="29.000000" height="20.000000" viewBox="0 0 29 20" fill="none" xmlns="http://www.w3.org/2000/svg" xmlns:xlink="http://www.w3.org/1999/xlink">
	<desc>
			Created with Pixso.
	</desc>
	<defs/>
	<path id="Vector" d="M9 20C8.74 20 8.49 19.9 8.3 19.73C7.57 19.1 6.87 18.5 6.25 17.98L6.25 17.97C4.44 16.43 2.87 15.09 1.78 13.78C0.56 12.31 0 10.92 0 9.4C0 7.92 0.5 6.56 1.42 5.56C2.35 4.55 3.63 4 5.02 4C6.06 4 7.01 4.32 7.85 4.97C8.27 5.3 8.66 5.7 9 6.16C9.33 5.7 9.72 5.3 10.14 4.97C10.98 4.32 11.93 4 12.97 4C14.36 4 15.64 4.55 16.57 5.56C17.49 6.56 18 7.92 18 9.4C18 10.92 17.43 12.31 16.21 13.78C15.12 15.09 13.55 16.43 11.74 17.97C11.12 18.5 10.42 19.1 9.69 19.73C9.5 19.9 9.25 20 9 20ZM5.02 5.05C3.93 5.05 2.93 5.48 2.2 6.27C1.46 7.08 1.05 8.19 1.05 9.4C1.05 10.68 1.53 11.82 2.59 13.11C3.62 14.35 5.16 15.66 6.93 17.17L6.94 17.17C7.56 17.7 8.26 18.3 8.99 18.94C9.73 18.3 10.44 17.7 11.06 17.17C12.83 15.66 14.37 14.35 15.4 13.11C16.46 11.82 16.94 10.68 16.94 9.4C16.94 8.19 16.53 7.08 15.79 6.27C15.06 5.48 14.06 5.05 12.97 5.05C12.17 5.05 11.43 5.3 10.78 5.8C10.21 6.25 9.8 6.82 9.57 7.21C9.45 7.41 9.23 7.53 9 7.53C8.76 7.53 8.54 7.41 8.42 7.21C8.19 6.82 7.78 6.25 7.21 5.8C6.56 5.3 5.82 5.05 5.02 5.05Z" fill="#956D84" fill-opacity="1.000000" fill-rule="nonzero"/>
	<g opacity="0.700000">
		<circle id="Ellipse 2" cx="21.000000" cy="8.000000" r="8.000000" fill="#FFFFFF" fill-opacity="1.000000"/>
	</g>
	<path id="2" d="M23.47 6.88Q23.7 6.26 23.7 5.65Q23.7 5.1 23.51 4.68Q23.35 4.31 23.08 4.04Q23.05 4.02 23.02 3.99Q22.71 3.72 22.28 3.57Q21.85 3.43 21.33 3.43Q20.53 3.43 19.93 3.66Q19.34 3.89 18.87 4.28L19.5 5.38Q19.77 5.13 20.17 4.97Q20.58 4.81 20.96 4.81Q21.55 4.81 21.83 5.1Q21.84 5.11 21.85 5.13Q21.91 5.2 21.96 5.27Q22.13 5.55 22.13 5.94Q22.13 6.34 21.97 6.8Q21.81 7.25 21.53 7.74Q21.26 8.23 20.91 8.71Q20.56 9.19 20.2 9.64Q19.83 10.09 19.47 10.49Q19.11 10.89 18.82 11.19L18.82 12L23.87 12L23.87 10.67L21.57 10.67L20.71 10.84L20.71 10.78L21.34 10.29Q21.74 9.82 22.15 9.27Q22.57 8.71 22.91 8.11Q23.25 7.51 23.47 6.88Z" fill="#414141" fill-opacity="1.000000" fill-rule="evenodd"/>
</svg>
