<svg width="18.333313" height="19.411743" viewBox="0 0 18.3333 19.4117" fill="none" xmlns="http://www.w3.org/2000/svg" xmlns:xlink="http://www.w3.org/1999/xlink">
	<desc>
			Created with Pixso.
	</desc>
	<defs/>
	<rect id="Frame 4" rx="0.000000" width="17.333328" height="18.411762" transform="translate(0.500000 0.500000)" fill="#FFFFFF" fill-opacity="0"/>
	<path id="Vector" d="M18 18.23L12.74 12.97C13.74 11.73 14.34 10.17 14.34 8.46C14.34 4.51 11.12 1.29 7.17 1.29C3.21 1.29 0 4.51 0 8.46C0 12.42 3.21 15.63 7.17 15.63C8.87 15.63 10.44 15.03 11.67 14.03L16.93 19.3C17.08 19.44 17.32 19.44 17.47 19.3L18 18.76C18.15 18.62 18.15 18.38 18 18.23ZM7.17 14.12C4.04 14.12 1.5 11.58 1.5 8.46C1.5 5.34 4.04 2.8 7.17 2.8C10.29 2.8 12.83 5.34 12.83 8.46C12.83 11.58 10.29 14.12 7.17 14.12Z" fill="#956D84" fill-opacity="1.000000" fill-rule="nonzero"/>
</svg>
